<mxfile host="65bd71144e">
    <diagram id="CD1nVhIS_Z3DMq56tEsz" name="第 1 页">
        <mxGraphModel dx="662" dy="796" grid="0" gridSize="10" guides="1" tooltips="1" connect="1" arrows="1" fold="1" page="0" pageScale="1" pageWidth="827" pageHeight="1169" math="0" shadow="0">
            <root>
                <mxCell id="0"/>
                <mxCell id="1" parent="0"/>
                <mxCell id="2" value="" style="rounded=0;whiteSpace=wrap;html=1;fillColor=#d5e8d4;strokeColor=#82b366;" vertex="1" parent="1">
                    <mxGeometry x="130" y="110" width="120" height="450" as="geometry"/>
                </mxCell>
                <mxCell id="3" value="内存" style="text;html=1;strokeColor=none;fillColor=none;align=center;verticalAlign=middle;whiteSpace=wrap;rounded=0;" vertex="1" parent="1">
                    <mxGeometry x="156" y="80" width="60" height="30" as="geometry"/>
                </mxCell>
                <mxCell id="4" value="Heap_entry" style="rounded=1;whiteSpace=wrap;html=1;fillColor=#ffe6cc;strokeColor=#d79b00;" vertex="1" parent="1">
                    <mxGeometry x="130" y="151" width="120" height="26" as="geometry"/>
                </mxCell>
                <mxCell id="5" value="data" style="rounded=1;whiteSpace=wrap;html=1;fillColor=#ffe6cc;strokeColor=#d79b00;" vertex="1" parent="1">
                    <mxGeometry x="130" y="177" width="120" height="26" as="geometry"/>
                </mxCell>
                <mxCell id="6" value="Heap_free_entry" style="rounded=1;whiteSpace=wrap;html=1;fillColor=#ffe6cc;strokeColor=#d79b00;" vertex="1" parent="1">
                    <mxGeometry x="130" y="203" width="120" height="26" as="geometry"/>
                </mxCell>
                <mxCell id="7" value="FLink" style="rounded=1;whiteSpace=wrap;html=1;fillColor=#ffe6cc;strokeColor=#d79b00;" vertex="1" parent="1">
                    <mxGeometry x="130" y="229" width="60" height="26" as="geometry"/>
                </mxCell>
                <mxCell id="8" value="BLink" style="rounded=1;whiteSpace=wrap;html=1;fillColor=#ffe6cc;strokeColor=#d79b00;" vertex="1" parent="1">
                    <mxGeometry x="191" y="229" width="59" height="26" as="geometry"/>
                </mxCell>
                <mxCell id="9" value="Heap_entry" style="rounded=1;whiteSpace=wrap;html=1;fillColor=#ffe6cc;strokeColor=#d79b00;" vertex="1" parent="1">
                    <mxGeometry x="130" y="255" width="120" height="26" as="geometry"/>
                </mxCell>
                <mxCell id="10" value="data" style="rounded=1;whiteSpace=wrap;html=1;fillColor=#ffe6cc;strokeColor=#d79b00;" vertex="1" parent="1">
                    <mxGeometry x="130" y="281" width="120" height="26" as="geometry"/>
                </mxCell>
                <mxCell id="11" value="Heap_free_entry" style="rounded=1;whiteSpace=wrap;html=1;fillColor=#ffe6cc;strokeColor=#d79b00;" vertex="1" parent="1">
                    <mxGeometry x="130" y="307" width="120" height="26" as="geometry"/>
                </mxCell>
                <mxCell id="12" value="FLink" style="rounded=1;whiteSpace=wrap;html=1;fillColor=#ffe6cc;strokeColor=#d79b00;" vertex="1" parent="1">
                    <mxGeometry x="130" y="333" width="60" height="26" as="geometry"/>
                </mxCell>
                <mxCell id="13" value="BLink" style="rounded=1;whiteSpace=wrap;html=1;fillColor=#ffe6cc;strokeColor=#d79b00;" vertex="1" parent="1">
                    <mxGeometry x="191" y="333" width="59" height="26" as="geometry"/>
                </mxCell>
                <mxCell id="14" value="&lt;div&gt;&amp;nbsp; &amp;nbsp; hHeap = HeapCreate(NULL, 0x1000, 0x10000);&lt;/div&gt;&lt;div&gt;&amp;nbsp; &amp;nbsp; h1 = HeapAlloc(hHeap, HEAP_ZERO_MEMORY, 0x8);&lt;/div&gt;&lt;div&gt;&amp;nbsp; &amp;nbsp; h2 = HeapAlloc(hHeap, HEAP_ZERO_MEMORY, 0x8);&lt;/div&gt;&lt;div&gt;&amp;nbsp; &amp;nbsp; h3 = HeapAlloc(hHeap, HEAP_ZERO_MEMORY, 0x8);&lt;/div&gt;&lt;div&gt;&amp;nbsp; &amp;nbsp; HeapFree(hHeap, 0, h2);&lt;/div&gt;&lt;div&gt;&lt;br&gt;&lt;/div&gt;&lt;div&gt;// 执行该代码时的内存结构图&lt;/div&gt;&lt;div&gt;&amp;nbsp; &amp;nbsp;&amp;nbsp;h2 = HeapAlloc(hHeap, HEAP_ZERO_MEMORY, 0x8);&lt;/div&gt;&lt;div&gt;/*&lt;/div&gt;&lt;div&gt;当执行以上代码时，FreeLists会摘除中间内存结构体&lt;/div&gt;&lt;div&gt;这时我们提前将中间未分配的 FLink 和 BLink 覆盖&lt;/div&gt;&lt;div&gt;再次分配时， FLink + 4 的位置就会写入 BLink&lt;/div&gt;&lt;div&gt;&lt;br&gt;&lt;/div&gt;&lt;div&gt;&lt;br&gt;&lt;/div&gt;&lt;div&gt;*/&lt;/div&gt;&lt;div&gt;&lt;br&gt;&lt;/div&gt;" style="text;html=1;align=left;verticalAlign=middle;whiteSpace=wrap;rounded=0;fillColor=#f5f5f5;fontColor=#333333;strokeColor=#666666;" vertex="1" parent="1">
                    <mxGeometry x="264" y="124" width="390" height="350" as="geometry"/>
                </mxCell>
            </root>
        </mxGraphModel>
    </diagram>
</mxfile>